<svg width="200" height="200" viewBox="0 0 200 200" fill="none" xmlns="http://www.w3.org/2000/svg">
<rect width="200" height="200" fill="#FDFAF8"/>
<g filter="url(#filter0_f_1013_868)">
<path d="M120 84L77 157" stroke="#CA2778" stroke-opacity="0.83" stroke-width="2"/>
</g>
<g filter="url(#filter1_n_1013_868)">
<path d="M120.349 82.6904L78.6597 155.156H41.0874L101.478 50.2188L120.349 82.6904ZM162.124 155.144H124.48L101.619 115.279H139.262L162.124 155.144Z" fill="url(#paint0_linear_1013_868)"/>
</g>
<g filter="url(#filter2_f_1013_868)">
<path d="M76 55L137.27 165.664L141.959 160.205L110 106L91 72L76 55Z" fill="#51112D"/>
</g>
<g filter="url(#filter3_f_1013_868)">
<path d="M102.232 76.0986L105.079 73.2958C105.155 73.2259 105.164 73.1228 105.112 73.0332L102.833 68.8319C102.712 68.6106 102.954 68.4198 103.216 68.5061L108.365 70.2427C108.478 70.281 108.605 70.2701 108.69 70.2027L112.038 67.6943C112.24 67.5456 112.599 67.6958 112.591 67.9351L112.546 72.2072C112.546 72.3127 112.614 72.4141 112.732 72.4689L117.248 74.6069C117.518 74.7332 117.49 75.0497 117.202 75.0923L112.632 75.7528C112.575 75.7605 112.523 75.7813 112.482 75.8128C112.442 75.8444 112.414 75.8856 112.402 75.9319L111.435 80.1647C111.384 80.3849 111.032 80.4177 110.856 80.2264L107.516 76.4237C107.444 76.3364 107.324 76.2886 107.199 76.2924L102.538 76.5511C102.26 76.5586 102.053 76.2686 102.232 76.0986Z" fill="#5C0A2D"/>
</g>
<g clip-path="url(#clip0_1013_868)">
<path d="M138.639 162.816L131.266 166.97L68.6037 59.254L75.9668 55.0974L138.639 162.816Z" fill="url(#paint1_linear_1013_868)"/>
<path d="M71.5359 55.8732C68.8595 57.3841 68.6065 59.2444 68.6065 59.2444L79.6787 78.2775C79.7204 77.3442 80.9001 76.0038 82.6631 75.0007C84.4235 74.0069 86.1939 73.682 87.0418 74.1209L75.9696 55.0878C75.9671 55.0971 74.2217 54.3649 71.5359 55.8732Z" fill="url(#paint2_linear_1013_868)"/>
<path d="M123.009 144.355C120.333 145.866 120.08 147.727 120.08 147.727L131.177 166.816C131.219 165.883 132.374 164.486 134.137 163.483C135.897 162.489 137.714 162.217 138.552 162.653L127.443 143.57C127.443 143.57 125.686 142.845 123.009 144.355Z" fill="url(#paint3_linear_1013_868)"/>
<path d="M138.575 162.702C138.054 161.808 135.983 162.014 133.948 163.162C131.914 164.311 130.686 165.967 131.207 166.862C131.727 167.756 133.798 167.55 135.833 166.402C137.868 165.253 139.095 163.597 138.575 162.702Z" fill="#9E9E9E"/>
<path opacity="0.85" d="M68.6177 59.2773L115.292 139.497C115.814 140.395 117.884 140.191 119.909 139.04C121.943 137.892 123.168 136.236 122.644 135.347L75.9714 55.1181C75.9714 55.1181 74.3132 54.2505 71.524 55.88C68.7349 57.5094 68.6177 59.2773 68.6177 59.2773Z" fill="url(#paint4_linear_1013_868)"/>
<path opacity="0.22" d="M84.5733 86.7051L131.248 166.925C131.77 167.822 133.84 167.619 135.865 166.468C137.899 165.32 139.124 163.663 138.599 162.775L91.9389 82.5392C91.9389 82.5392 90.2806 81.6716 87.4915 83.301C84.7092 84.9423 84.5733 86.7051 84.5733 86.7051Z" fill="url(#paint5_linear_1013_868)"/>
<g filter="url(#filter4_dn_1013_868)">
<path d="M54.5321 82.7488L50.4434 75.6933C50.2167 75.3036 50.6133 74.8445 51.0417 75.0105L57.4061 77.5033C57.6519 77.5998 57.9341 77.4875 58.0327 77.2358L61.141 69.568C61.3229 69.1202 61.9885 69.1915 62.0674 69.6802L63.569 78.957C63.5926 79.0927 63.68 79.2158 63.8013 79.2885L71.4559 83.9311C71.8291 84.1517 71.7397 84.7041 71.321 84.7993L63.5163 86.6486C63.4253 86.6708 63.3427 86.7181 63.2782 86.7851C63.2137 86.8521 63.1698 86.936 63.1518 87.0269L61.8083 94.2788C61.7908 94.3754 61.7435 94.4641 61.673 94.5328C61.6024 94.6015 61.512 94.6468 61.4141 94.6626C61.3161 94.6785 61.2154 94.664 61.1257 94.6212C61.036 94.5784 60.9617 94.5094 60.9128 94.4235L57.5455 88.4586C57.4519 88.2841 57.2461 88.1885 57.0478 88.2142L50.6019 89.1396C50.1626 89.1994 49.8672 88.6917 50.1604 88.3536L54.4995 83.2769C54.6173 83.1399 54.6351 82.9259 54.5321 82.7488Z" fill="url(#paint6_linear_1013_868)"/>
</g>
<path d="M101.684 73.948L104.93 70.1159C105.017 70.02 105.033 69.8853 104.983 69.7723L102.809 64.4593C102.694 64.1794 102.967 63.9154 103.243 64.0103L108.665 65.9292C108.785 65.9716 108.922 65.9491 109.018 65.8558L112.783 62.3734C113.01 62.1667 113.387 62.3384 113.363 62.6501L113.033 68.2082C113.026 68.3455 113.092 68.4728 113.216 68.5363L117.931 71.019C118.214 71.1653 118.162 71.5788 117.85 71.6531L112.891 72.8132C112.829 72.827 112.772 72.8574 112.726 72.9011C112.681 72.9449 112.648 73.0002 112.632 73.0612L111.313 78.6292C111.244 78.9188 110.864 78.9846 110.686 78.7475L107.345 74.0226C107.274 73.9138 107.148 73.8597 107.013 73.8729L101.983 74.5164C101.684 74.5444 101.48 74.181 101.684 73.948Z" fill="url(#paint7_radial_1013_868)"/>
<g filter="url(#filter5_dn_1013_868)">
<path d="M56.021 41.453L54.6309 32.6937C54.5582 32.2564 55.0452 32.0206 55.3652 32.3262L61.5224 38.1434C61.6662 38.2819 61.8776 38.3194 62.0416 38.2346L72.5296 32.1022C72.8602 31.9234 73.2715 32.2638 73.1872 32.6485L68.573 42.4133C68.5397 42.5733 68.5933 42.747 68.7208 42.871L77.266 50.9869C77.5766 51.2899 77.3983 51.7983 76.9911 51.7773L66.9568 50.1877C66.8678 50.1858 66.7806 50.2114 66.7074 50.2612C66.6343 50.3109 66.579 50.3821 66.5492 50.4649L62.8516 58.5594C62.7255 58.913 62.2468 58.9322 62.0501 58.5805L58.4562 49.9987C58.3807 49.8689 58.255 49.7751 58.1093 49.7554L46.9008 48.0759C46.4779 48.0009 46.3441 47.4177 46.7034 47.207L55.8178 41.9049C55.963 41.8151 56.0415 41.6375 56.021 41.453Z" fill="url(#paint8_linear_1013_868)"/>
</g>
<path d="M69.1018 58.9411C69.0625 62.6492 68.8887 66.3705 68.2163 70.036C67.572 73.7091 66.3216 77.2774 64.7142 80.6395C63.088 83.9964 61.3106 87.2427 59.7038 90.5652C58.0971 93.8877 56.6167 97.2643 55.2438 100.69C54.5574 102.403 53.9247 104.14 53.2664 105.861C52.6276 107.547 52.2095 109.273 52.1519 111.007C52.1299 112.721 52.5039 114.424 53.5185 115.733C54.5118 117.047 56.0186 117.953 57.6979 118.408C61.0797 119.346 64.8216 118.92 68.3332 118.043C71.866 117.162 75.2631 115.668 78.6603 114.174C85.4683 111.209 92.1022 107.809 98.7637 104.456C102.1 102.777 105.428 101.094 108.792 99.4619C112.142 97.8058 115.554 96.256 119.023 94.8309C122.486 93.3941 126.049 92.104 129.76 91.2717C130.664 91.0595 131.664 90.824 132.753 90.9702C133.3 91.069 133.876 91.285 134.321 91.7239C134.766 92.1629 134.961 92.7428 135.049 93.2737C135.179 94.353 134.946 95.3238 134.647 96.2372C134.34 97.148 133.943 98.0149 133.496 98.8479C131.663 102.149 129.274 105.05 126.73 107.78C125.454 109.144 124.131 110.456 122.769 111.726C121.399 112.986 119.982 114.202 118.552 115.385C121.291 112.867 123.918 110.239 126.338 107.445C128.749 104.649 130.997 101.67 132.633 98.425C133.027 97.607 133.392 96.7814 133.651 95.937C133.91 95.0926 134.069 94.211 133.955 93.4442C133.886 93.0675 133.755 92.7336 133.511 92.5184C133.277 92.3056 132.94 92.1744 132.564 92.1121C131.783 92.0195 130.924 92.2141 130.023 92.4566C126.457 93.3482 122.991 94.6848 119.601 96.1909C106.04 102.215 93.1505 109.774 79.4554 115.921C76.0207 117.405 72.5316 118.904 68.791 119.808C65.0861 120.692 61.1077 121.173 57.208 120.065C55.2804 119.522 53.3953 118.414 52.1422 116.722C50.8584 115.031 50.4279 112.906 50.4777 110.941C50.5701 108.967 51.0409 107.046 51.7518 105.281C52.4595 103.564 53.1322 101.827 53.868 100.118C55.3397 96.699 56.919 93.3293 58.6127 90.0205C60.3158 86.7142 62.1589 83.4858 63.8613 80.2191C65.5706 76.9642 66.9341 73.536 67.7115 69.9288C68.5052 66.336 68.853 62.642 69.1018 58.9411Z" fill="#FDD835"/>
<path d="M70.164 87.5774C69.7946 98.6632 59.401 108.679 57.6624 120.06C57.0817 124.426 61.7155 127.543 70.901 125.691C86.9144 121.505 98.2419 112.13 104.479 109.229C99.653 114.094 87.8429 123.577 77.5171 129.594C62.1531 138.699 47.7629 132.337 50.9212 120.885C51.589 116.94 55.4835 110.012 57.4819 107.214C59.5616 104.487 67.0005 95.2999 70.164 87.5774Z" fill="url(#paint9_radial_1013_868)"/>
</g>
<defs>
<filter id="filter0_f_1013_868" x="68.1384" y="75.4924" width="60.7231" height="90.0151" filterUnits="userSpaceOnUse" color-interpolation-filters="sRGB">
<feFlood flood-opacity="0" result="BackgroundImageFix"/>
<feBlend mode="normal" in="SourceGraphic" in2="BackgroundImageFix" result="shape"/>
<feGaussianBlur stdDeviation="4" result="effect1_foregroundBlur_1013_868"/>
</filter>
<filter id="filter1_n_1013_868" x="41.0874" y="50.2188" width="121.036" height="104.938" filterUnits="userSpaceOnUse" color-interpolation-filters="sRGB">
<feFlood flood-opacity="0" result="BackgroundImageFix"/>
<feBlend mode="normal" in="SourceGraphic" in2="BackgroundImageFix" result="shape"/>
<feTurbulence type="fractalNoise" baseFrequency="0.83333331346511841 0.83333331346511841" stitchTiles="stitch" numOctaves="3" result="noise" seed="6440" />
<feColorMatrix in="noise" type="luminanceToAlpha" result="alphaNoise" />
<feComponentTransfer in="alphaNoise" result="coloredNoise1">
<feFuncA type="discrete" tableValues="0 0 0 0 0 0 0 0 0 1 1 1 1 1 1 1 1 1 1 1 1 1 1 1 1 1 1 1 1 1 1 1 1 1 1 1 1 1 1 1 1 0 0 0 0 0 0 0 0 0 0 0 0 0 0 0 0 0 0 0 0 0 0 0 0 0 0 0 0 0 0 0 0 0 0 0 0 0 0 0 0 0 0 0 0 0 0 0 0 0 0 0 0 0 0 0 0 0 0 0 "/>
</feComponentTransfer>
<feComposite operator="in" in2="shape" in="coloredNoise1" result="noise1Clipped" />
<feFlood flood-color="#B95A87" result="color1Flood" />
<feComposite operator="in" in2="noise1Clipped" in="color1Flood" result="color1" />
<feMerge result="effect1_noise_1013_868">
<feMergeNode in="shape" />
<feMergeNode in="color1" />
</feMerge>
</filter>
<filter id="filter2_f_1013_868" x="62.3125" y="41.3125" width="93.3342" height="138.039" filterUnits="userSpaceOnUse" color-interpolation-filters="sRGB">
<feFlood flood-opacity="0" result="BackgroundImageFix"/>
<feBlend mode="normal" in="SourceGraphic" in2="BackgroundImageFix" result="shape"/>
<feGaussianBlur stdDeviation="6.84375" result="effect1_foregroundBlur_1013_868"/>
</filter>
<filter id="filter3_f_1013_868" x="92.1653" y="57.635" width="35.27" height="32.7169" filterUnits="userSpaceOnUse" color-interpolation-filters="sRGB">
<feFlood flood-opacity="0" result="BackgroundImageFix"/>
<feBlend mode="normal" in="SourceGraphic" in2="BackgroundImageFix" result="shape"/>
<feGaussianBlur stdDeviation="5" result="effect1_foregroundBlur_1013_868"/>
</filter>
<filter id="filter4_dn_1013_868" x="42.0427" y="65.2695" width="37.6487" height="41.3994" filterUnits="userSpaceOnUse" color-interpolation-filters="sRGB">
<feFlood flood-opacity="0" result="BackgroundImageFix"/>
<feColorMatrix in="SourceAlpha" type="matrix" values="0 0 0 0 0 0 0 0 0 0 0 0 0 0 0 0 0 0 127 0" result="hardAlpha"/>
<feOffset dy="4"/>
<feGaussianBlur stdDeviation="4"/>
<feComposite in2="hardAlpha" operator="out"/>
<feColorMatrix type="matrix" values="0 0 0 0 0.617308 0 0 0 0 0.617308 0 0 0 0 0.617308 0 0 0 0.25 0"/>
<feBlend mode="normal" in2="BackgroundImageFix" result="effect1_dropShadow_1013_868"/>
<feBlend mode="normal" in="SourceGraphic" in2="BackgroundImageFix" result="shape"/>
<feTurbulence type="fractalNoise" baseFrequency="0.71428573131561279 0.71428573131561279" stitchTiles="stitch" numOctaves="3" result="noise" seed="261" />
<feColorMatrix in="noise" type="luminanceToAlpha" result="alphaNoise" />
<feComponentTransfer in="alphaNoise" result="coloredNoise1">
<feFuncA type="discrete" tableValues="0 0 0 0 0 0 0 1 1 1 1 1 1 1 1 1 1 1 1 1 1 1 1 1 1 1 1 1 1 1 1 1 1 1 1 1 1 1 1 1 1 1 1 0 0 0 0 0 0 0 0 0 0 0 0 0 0 0 0 0 0 0 0 0 0 0 0 0 0 0 0 0 0 0 0 0 0 0 0 0 0 0 0 0 0 0 0 0 0 0 0 0 0 0 0 0 0 0 0 0 "/>
</feComponentTransfer>
<feComposite operator="in" in2="shape" in="coloredNoise1" result="noise1Clipped" />
<feFlood flood-color="rgba(246, 246, 246, 0.25)" result="color1Flood" />
<feComposite operator="in" in2="noise1Clipped" in="color1Flood" result="color1" />
<feMerge result="effect2_noise_1013_868">
<feMergeNode in="shape" />
<feMergeNode in="color1" />
</feMerge>
<feBlend mode="normal" in="effect2_noise_1013_868" in2="effect1_dropShadow_1013_868" result="effect2_noise_1013_868"/>
</filter>
<filter id="filter5_dn_1013_868" x="38.4958" y="28.0532" width="46.9277" height="42.7814" filterUnits="userSpaceOnUse" color-interpolation-filters="sRGB">
<feFlood flood-opacity="0" result="BackgroundImageFix"/>
<feColorMatrix in="SourceAlpha" type="matrix" values="0 0 0 0 0 0 0 0 0 0 0 0 0 0 0 0 0 0 127 0" result="hardAlpha"/>
<feOffset dy="4"/>
<feGaussianBlur stdDeviation="4"/>
<feComposite in2="hardAlpha" operator="out"/>
<feColorMatrix type="matrix" values="0 0 0 0 0.617308 0 0 0 0 0.617308 0 0 0 0 0.617308 0 0 0 0.25 0"/>
<feBlend mode="normal" in2="BackgroundImageFix" result="effect1_dropShadow_1013_868"/>
<feBlend mode="normal" in="SourceGraphic" in2="BackgroundImageFix" result="shape"/>
<feTurbulence type="fractalNoise" baseFrequency="0.71428573131561279 0.71428573131561279" stitchTiles="stitch" numOctaves="3" result="noise" seed="261" />
<feColorMatrix in="noise" type="luminanceToAlpha" result="alphaNoise" />
<feComponentTransfer in="alphaNoise" result="coloredNoise1">
<feFuncA type="discrete" tableValues="0 0 0 0 0 0 0 1 1 1 1 1 1 1 1 1 1 1 1 1 1 1 1 1 1 1 1 1 1 1 1 1 1 1 1 1 1 1 1 1 1 1 1 0 0 0 0 0 0 0 0 0 0 0 0 0 0 0 0 0 0 0 0 0 0 0 0 0 0 0 0 0 0 0 0 0 0 0 0 0 0 0 0 0 0 0 0 0 0 0 0 0 0 0 0 0 0 0 0 0 "/>
</feComponentTransfer>
<feComposite operator="in" in2="shape" in="coloredNoise1" result="noise1Clipped" />
<feFlood flood-color="rgba(246, 246, 246, 0.25)" result="color1Flood" />
<feComposite operator="in" in2="noise1Clipped" in="color1Flood" result="color1" />
<feMerge result="effect2_noise_1013_868">
<feMergeNode in="shape" />
<feMergeNode in="color1" />
</feMerge>
<feBlend mode="normal" in="effect2_noise_1013_868" in2="effect1_dropShadow_1013_868" result="effect2_noise_1013_868"/>
</filter>
<linearGradient id="paint0_linear_1013_868" x1="114.641" y1="108.391" x2="156.844" y2="174.547" gradientUnits="userSpaceOnUse">
<stop stop-color="#97144D"/>
<stop offset="1" stop-color="#C75285"/>
</linearGradient>
<linearGradient id="paint1_linear_1013_868" x1="104.543" y1="126.552" x2="117.091" y2="120.111" gradientUnits="userSpaceOnUse">
<stop stop-color="#A72C71"/>
<stop offset="0.451923" stop-color="#CE2473"/>
<stop offset="1" stop-color="#840948"/>
</linearGradient>
<linearGradient id="paint2_linear_1013_868" x1="74.4147" y1="67.751" x2="82.426" y2="63.0913" gradientUnits="userSpaceOnUse">
<stop offset="0.262" stop-color="#F5F5F5"/>
<stop offset="0.466" stop-color="#EAEAEA"/>
<stop offset="0.822" stop-color="#CDCDCD"/>
<stop offset="0.989" stop-color="#BDBDBD"/>
</linearGradient>
<linearGradient id="paint3_linear_1013_868" x1="125.898" y1="156.263" x2="133.928" y2="151.591" gradientUnits="userSpaceOnUse">
<stop offset="0.262" stop-color="#F5F5F5"/>
<stop offset="0.466" stop-color="#EAEAEA"/>
<stop offset="0.822" stop-color="#CDCDCD"/>
<stop offset="0.989" stop-color="#BDBDBD"/>
</linearGradient>
<linearGradient id="paint4_linear_1013_868" x1="93.2712" y1="93.2457" x2="70.0405" y2="52.0944" gradientUnits="userSpaceOnUse">
<stop stop-color="#FADA80" stop-opacity="0"/>
<stop offset="1" stop-color="#FADA80"/>
</linearGradient>
<linearGradient id="paint5_linear_1013_868" x1="141.967" y1="176.953" x2="125.89" y2="148.474" gradientUnits="userSpaceOnUse">
<stop stop-color="#1A237E"/>
<stop offset="0.186" stop-color="#1D2A87" stop-opacity="0.814"/>
<stop offset="0.49" stop-color="#243DA0" stop-opacity="0.51"/>
<stop offset="0.873" stop-color="#2F5CC7" stop-opacity="0.127"/>
<stop offset="1" stop-color="#3367D6" stop-opacity="0"/>
</linearGradient>
<linearGradient id="paint6_linear_1013_868" x1="51.6266" y1="71.5952" x2="76.043" y2="83.3242" gradientUnits="userSpaceOnUse">
<stop stop-color="#FFEFAD"/>
<stop offset="0.675" stop-color="#FFCA00"/>
</linearGradient>
<radialGradient id="paint7_radial_1013_868" cx="0" cy="0" r="1" gradientUnits="userSpaceOnUse" gradientTransform="translate(104.928 66.6986) rotate(-95.1465) scale(11.4206 11.5339)">
<stop stop-color="#FFEB3B"/>
<stop offset="1" stop-color="#FBC02D"/>
</radialGradient>
<linearGradient id="paint8_linear_1013_868" x1="51" y1="32" x2="83.2253" y2="48.625" gradientUnits="userSpaceOnUse">
<stop offset="0.325" stop-color="#FFCA00"/>
<stop offset="1" stop-color="#FFEFAD"/>
</linearGradient>
<radialGradient id="paint9_radial_1013_868" cx="0" cy="0" r="1" gradientUnits="userSpaceOnUse" gradientTransform="translate(108.762 73.2115) rotate(-43.7934) scale(90.2516 54.4206)">
<stop stop-color="#FFEE58" stop-opacity="0"/>
<stop offset="1" stop-color="#FDD835"/>
</radialGradient>
<clipPath id="clip0_1013_868">
<rect width="122.829" height="124.431" fill="white" transform="translate(19.6924 141.275) rotate(-74.8168)"/>
</clipPath>
</defs>
</svg>
